<?xml version="1.0" standalone="no"?>
<!DOCTYPE svg PUBLIC "-//W3C//DTD SVG 20010904//EN"
 "http://www.w3.org/TR/2001/REC-SVG-20010904/DTD/svg10.dtd">
<svg version="1.0" xmlns="http://www.w3.org/2000/svg"
 width="500.000000pt" height="500.000000pt" viewBox="0 0 500.000000 500.000000"
 preserveAspectRatio="xMidYMid meet">
<metadata>
Created by potrace 1.11, written by Peter Selinger 2001-2013
</metadata>
<g transform="translate(0.000000,500.000000) scale(0.100000,-0.100000)"
fill="#000000" stroke="none">
<path d="M0 2500 l0 -2500 2500 0 2500 0 0 2500 0 2500 -2500 0 -2500 0 0
-2500z m1578 1334 c205 -37 366 -125 509 -278 79 -84 134 -178 172 -292 17
-51 31 -97 31 -103 0 -8 -64 -11 -210 -11 l-210 0 -25 56 c-57 129 -153 214
-289 257 -59 18 -94 22 -206 22 -219 -1 -340 -46 -471 -175 -167 -165 -242
-375 -242 -680 -1 -350 108 -616 310 -754 231 -157 596 -149 790 18 55 48 118
144 140 212 l17 54 213 0 213 0 -6 -27 c-96 -404 -359 -651 -765 -719 -146
-24 -387 -15 -519 19 -189 49 -312 114 -434 228 -124 116 -205 233 -272 396
-124 300 -136 741 -29 1064 35 103 103 236 165 319 62 83 182 199 257 247 232
148 552 203 861 147z m1492 -504 l0 -480 595 0 595 0 0 480 0 480 200 0 200 0
0 -1185 0 -1185 -200 0 -200 0 0 515 0 515 -595 0 -595 0 0 -515 0 -515 -200
0 -200 0 0 1185 0 1185 200 0 200 0 0 -480z"/>
</g>
</svg>
