<?xml version="1.0" standalone="no"?>
<!DOCTYPE svg PUBLIC "-//W3C//DTD SVG 20010904//EN"
 "http://www.w3.org/TR/2001/REC-SVG-20010904/DTD/svg10.dtd">
<svg version="1.0" xmlns="http://www.w3.org/2000/svg"
 width="700.000000pt" height="700.000000pt" viewBox="0 0 700.000000 700.000000"
 preserveAspectRatio="xMidYMid meet">
<metadata>
Created by potrace 1.11, written by Peter Selinger 2001-2013
</metadata>
<g transform="translate(0.000000,700.000000) scale(0.100000,-0.100000)"
fill="#000000" stroke="none">
<path d="M3814 6141 c-2 -2 -4 -1192 -4 -2643 l0 -2638 140 0 140 0 1 833 c2
989 2 983 34 1157 3 14 7 41 10 60 7 42 44 187 55 215 4 11 18 49 31 85 29 85
90 207 146 295 66 102 113 156 242 275 34 31 149 103 216 135 100 47 156 66
260 85 95 17 130 21 215 21 81 0 103 -2 195 -17 22 -3 47 -7 55 -8 8 -1 35 -8
60 -15 229 -66 410 -219 521 -440 36 -73 93 -232 104 -290 3 -14 7 -37 10 -51
3 -14 8 -47 11 -75 4 -27 8 -53 10 -56 12 -21 17 -372 17 -1226 l0 -983 131 0
131 0 -1 1047 c-1 921 -4 1157 -20 1238 -2 11 -7 40 -10 65 -3 25 -10 60 -16
78 -5 18 -11 43 -12 55 -4 33 -35 137 -52 174 -8 17 -14 34 -14 38 0 5 -21 49
-46 99 -143 284 -356 460 -657 545 -122 34 -209 45 -372 45 -169 1 -245 -10
-399 -56 -203 -60 -388 -170 -542 -323 -65 -65 -144 -159 -144 -173 0 -6 -4
-12 -8 -14 -22 -9 -142 -241 -142 -274 0 -8 -4 -14 -10 -14 -6 0 -10 64 -10
173 -6 2128 -8 2569 -14 2574 -7 7 -255 11 -262 4z"/>
<path d="M1940 4329 c-25 -4 -65 -10 -90 -13 -25 -4 -53 -9 -62 -12 -9 -3 -25
-7 -35 -9 -73 -15 -121 -27 -138 -34 -11 -5 -47 -19 -80 -29 -94 -32 -304
-139 -360 -184 -5 -5 -32 -25 -60 -46 -27 -20 -55 -41 -61 -47 -223 -203 -358
-392 -457 -640 -36 -91 -81 -236 -90 -290 -3 -17 -8 -41 -11 -55 -7 -32 -14
-77 -23 -160 -9 -76 -9 -352 0 -425 14 -117 20 -154 38 -235 127 -555 509
-997 1022 -1180 135 -48 246 -74 407 -96 74 -10 340 -12 415 -3 200 24 345 63
493 130 120 55 291 163 337 213 6 6 33 32 61 58 l51 46 -76 76 c-42 42 -80 76
-83 76 -4 0 -43 -28 -85 -63 -77 -62 -225 -157 -274 -175 -14 -6 -45 -19 -69
-30 -78 -35 -226 -78 -302 -88 -24 -3 -56 -9 -73 -13 -34 -8 -334 -6 -380 2
-16 4 -46 9 -65 12 -19 3 -55 11 -80 16 -25 6 -52 12 -60 14 -33 7 -168 58
-220 83 -163 78 -330 208 -440 341 -19 24 -40 48 -46 54 -66 73 -213 363 -238
472 -2 6 -8 28 -14 50 -6 22 -14 56 -17 75 -3 19 -8 42 -10 50 -25 89 -39 372
-23 495 15 117 17 131 33 205 43 203 133 411 251 577 100 143 295 315 444 394
25 13 47 27 48 32 2 4 12 7 23 7 10 0 19 5 19 10 0 6 6 10 14 10 8 0 35 9 61
20 44 19 203 63 270 75 105 18 289 24 395 12 273 -31 536 -156 725 -345 l59
-59 45 41 c25 22 66 60 91 83 l45 42 -60 61 c-199 204 -483 343 -805 394 -89
14 -380 17 -460 5z"/>
</g>
</svg>
