<?xml version="1.0" encoding="utf-8"?>
<!-- Generator: Adobe Illustrator 22.0.0, SVG Export Plug-In . SVG Version: 6.00 Build 0)  -->
<svg version="1.1" id="Слой_1" xmlns="http://www.w3.org/2000/svg" xmlns:xlink="http://www.w3.org/1999/xlink" x="0px" y="0px"
	 viewBox="0 0 996.6 379.5" style="enable-background:new 0 0 996.6 379.5;" xml:space="preserve">
<style type="text/css">
	.st0{stroke:#000000;stroke-width:0.1;stroke-miterlimit:10;}
</style>
<g>
	<path class="st0" d="M172.2,213.2c-17.4,0-34.1,10.5-40.4,28.1h-0.5l-0.4-134.4c0-27.6,12.5-49.9,36.2-49.9c1.9,0,4.2,0.2,5.6,0.5
		l0.7-7.7c-2.1-0.5-3.9-0.5-6.3-0.5c-15.6,0-30.2,9.3-36.2,28.3h-0.5c0-7-0.5-19.3-0.9-25.1h-8.1c0.7,6.3,0.9,19.5,0.9,26v245.2h0.7
		l0,0h8.4v-50.9c0-34.9,18.1-52.5,39.5-52.5c25.8,0,32.3,21.1,32.3,40.4v63h8.4v-65.3C211.4,234.8,201.2,213.2,172.2,213.2z"/>
	<path class="st0" d="M332.5,252.4c0-26.7-16.3-39.3-40.4-39.3c-14.2,0-28.1,5.3-37.6,13.9l4.6,6c8.4-7.7,19.7-12.8,32.5-12.8
		c20,0,32.8,10.2,32.8,32.5v7H309c-26.7,0-61.3,4.7-61.3,35.5c0,22.1,19,31.4,36.2,31.4c17.2,0,33-8.1,40.2-26h0.7
		c0,6,0.7,17.2,1.6,23h7.9c-1.2-5.8-1.8-16-1.8-24.1V252.4z M324.4,272.9c0,23.4-10.7,46.9-39,46.9c-13,0-29.3-6.3-29.3-24.6
		c0-25.1,31.1-28.6,55.3-28.6h13V272.9z"/>
	<path class="st0" d="M431.5,213.2c-18.8,0-36.7,10-45.8,29.1H385v-25.8h-8.6v163h8.6v-81.3h0.7c8.4,18.6,26.9,28.6,45.8,28.6
		c32.1,0,54.4-24.4,54.4-56.7C485.8,237.6,464,213.2,431.5,213.2z M431,319.5c-26.7,0-46.5-22.3-46.5-49.5
		c0-27.4,19.8-49.7,46.5-49.7c28.3,0,46,23,46,49.7C477,297,459.3,319.5,431,319.5z"/>
	<path class="st0" d="M577.6,213.2c-18.8,0-36.7,10-45.8,29.1h-0.7v-25.8h-8.6v163h8.6v-81.3h0.7c8.4,18.6,27,28.6,45.8,28.6
		c32,0,54.3-24.4,54.3-56.7C632,237.6,610.2,213.2,577.6,213.2z M577.2,319.5c-26.7,0-46.4-22.3-46.4-49.5
		c0-27.4,19.7-49.7,46.4-49.7c28.3,0,46,23,46,49.7C623.2,297,605.5,319.5,577.2,319.5z"/>
	<path class="st0" d="M711.9,213.2c-29.3,0-52,23.5-52,56c0,33.5,22.3,57.6,54.1,57.6c18.4,0,33-7.2,44.1-21.4l-5.8-4.9
		c-9.5,11.6-21.8,19-38.3,19c-29.5,0-45.3-24.4-45.5-49h93.6c0-1.6,0.2-3.5,0.2-5.1C762.3,238.5,745.4,213.2,711.9,213.2z
		 M668.7,263.6c0.5-16.7,14.4-43.2,43.2-43.2c25.1,0,41.3,17.6,42,43.2H668.7z"/>
	<path class="st0" d="M848.3,213.2c-17.4,0-33.9,10.7-40.2,28.3h-0.5c0-7-0.5-19.3-0.9-25.1h-8.1c0.7,6.3,0.9,19.5,0.9,26v81.3h8.6
		v-54.1c0-31.6,18.1-49.2,39.5-49.2c25.6,0,32.3,21.1,32.3,40.4v63h8.4v-65.3C888.3,234.8,877.4,213.2,848.3,213.2z"/>
	<path class="st0" d="M962.4,264.7c-20.2-4.9-28.8-10-28.8-22.8c0-16,14.7-21.6,26-21.6c12.5,0,21.6,4.9,27.8,14.2l6.3-4.7
		c-7-10.7-18.8-16.7-33.9-16.7c-17.2,0-34.6,9.3-34.6,28.8c0,16,10.9,23.7,29,28.3c16.5,4.2,33.9,8.1,33.9,25.3
		c0,16-14.6,23.7-28.3,23.7c-13.9,0-25.3-6.3-32.5-16.5l-6.8,4.9c8.9,12.6,23.3,18.8,39.3,18.8c19.3,0,36.7-10.7,36.7-31.6
		C996.5,276.6,981.9,269.4,962.4,264.7z"/>
	<path class="st0" d="M55.6,155.4c-28.6,0-46.7-22.1-46.7-49.3c0-26.9,18.1-49.7,46.7-49.7c11.8,0,23,5.1,30.2,13.4l5.8-5.3
		c-8.8-10-21.8-15.3-36-15.3C23,49.3,0.1,73.4,0.1,106.2c0,33,23,56.7,55.5,56.7c14.6,0,27.2-4.7,36.9-14.9l-5.1-5.1
		C79,150.8,68.1,155.4,55.6,155.4z"/>
	<path class="st0" d="M283.7,141.5l-5.8-4.9c-9.5,11.6-21.8,19-38.3,19c-29.5,0-45.3-24.4-45.5-49h93.6c0-1.6,0.2-3.5,0.2-5.1
		c0-27-16.9-52.3-50.4-52.3c-29.3,0-52,23.5-52,56c0,33.5,22.3,57.6,54.1,57.6C257.9,162.9,272.6,155.7,283.7,141.5z M237.5,56.5
		c25.1,0,41.3,17.6,42,43.2h-85.3C194.8,83,208.7,56.5,237.5,56.5z"/>
	<path class="st0" d="M391.5,136.8h0.7c0,6,0.7,17.2,1.6,23h7.9c-1.2-5.8-1.9-16-1.9-24.1V88.5c0-26.7-16.3-39.3-40.4-39.3
		c-14.2,0-28.1,5.3-37.6,13.9l4.6,6c8.4-7.7,19.7-12.8,32.5-12.8c20,0,32.8,10.2,32.8,32.5v7h-15.3c-26.7,0-61.3,4.7-61.3,35.5
		c0,22.1,19,31.4,36.2,31.4C368.5,162.9,384.3,154.7,391.5,136.8z M352.7,155.9c-13,0-29.3-6.3-29.3-24.6
		c0-25.1,31.1-28.6,55.3-28.6h13v6.3C391.8,132.4,381.1,155.9,352.7,155.9z"/>
	<path class="st0" d="M445.3,136.2c0,17.2,10,26,25.1,26c5.3,0,10.7-1.1,14.9-2.8l-0.7-7.2c-3.5,1.6-8.1,2.6-12.3,2.6
		c-10.9,0-18.6-5.1-18.6-20V59.5h31.1v-7h-31.1V21.2H445v31.4h-22.8v7h23V136.2z"/>
	<path class="st0" d="M517.5,0.1c-3.7,0-7.2,3.2-7.2,7.4c0,4.7,3.5,7.7,7.2,7.7c3.5,0,7-3,7-7.7C524.5,3.3,521,0.1,517.5,0.1z"/>
	<!--<rect x="513.3" y="52.5" class="st0" width="8.4" height="107.3"/>-->
	<polygon class="st0" points="597.7,151.2 597.2,151.2 558.9,52.5 549.6,52.5 592.3,159.8 602.3,159.8 644.1,52.5 635.1,52.5 	"/>
	<path class="st0" d="M715.2,49.3c-29.3,0-52,23.5-52,56c0,33.5,22.3,57.6,54.1,57.6c18.4,0,33-7.2,44.1-21.4l-5.8-4.9
		c-9.5,11.6-21.8,19-38.3,19c-29.5,0-45.3-24.4-45.5-49h93.6c0-1.6,0.2-3.5,0.2-5.1C765.6,74.6,748.7,49.3,715.2,49.3z M672,99.7
		c0.5-16.7,14.4-43.2,43.2-43.2c25.1,0,41.3,17.6,42,43.2H672z"/>
</g>
</svg>
